<svg width="45" height="45" viewBox="0 0 45 45" fill="none" xmlns="http://www.w3.org/2000/svg">
<rect width="45" height="45" fill="white"/>
<rect width="45" height="45" fill="#00AAFF"/>
<path d="M32.4445 9C35.9383 9.00568 39.1069 11.0277 40.5506 14.1728C41.9944 17.3179 41.4473 21.0068 39.1511 23.6099L28.0571 34.5895C26.6468 36.025 24.7082 36.8341 22.684 36.8323C20.6501 36.8319 18.7021 36.0215 17.28 34.584L16.5102 33.8313L20.2708 30.1137L21.0715 30.8996C21.4848 31.3379 22.0624 31.5886 22.6685 31.5927C23.2777 31.5992 23.8633 31.3605 24.2909 30.9315L34.9306 20.4135C35.516 19.7691 35.8362 18.9314 35.8279 18.0653C35.8365 17.1196 35.4627 16.2095 34.7895 15.5375C34.1162 14.8655 33.1994 14.487 32.2426 14.4863C31.3628 14.4756 30.5113 14.794 29.8589 15.3776L13.8503 31.2046L6.1888 23.5988C4.77517 21.9857 3.99796 19.9224 4 17.7881C4.01346 14.2861 6.12188 11.1237 9.37214 9.7307C12.6224 8.33764 16.3985 8.97788 18.9935 11.362L20.0829 12.4376L16.3041 16.1733C16.3041 16.1733 15.7011 15.5564 15.488 15.3707C14.838 14.7931 13.9924 14.4775 13.1183 14.4863C12.1628 14.4808 11.2445 14.8523 10.567 15.5184C9.88951 16.1845 9.50876 17.0902 9.50915 18.0349C9.49776 18.9075 9.81856 19.7526 10.4079 20.4024L13.8236 23.779L25.7561 11.9968C27.4436 10.0904 29.882 8.99783 32.4445 9Z" fill="white"/>
</svg>
