<svg width="38" height="28" viewBox="0 0 38 28" fill="none" xmlns="http://www.w3.org/2000/svg">
<path d="M28.4641 0.0831684C31.9579 0.0888414 35.1265 2.11084 36.5703 5.25597C38.014 8.4011 37.4669 12.09 35.1707 14.6931L24.0767 25.6727C22.6664 27.1081 20.7278 27.9173 18.7036 27.9154C16.6697 27.9151 14.7217 27.1046 13.2996 25.6671L12.5298 24.9145L16.2905 21.1968L17.0911 21.9828C17.5044 22.421 18.0821 22.6717 18.6882 22.6758C19.2973 22.6823 19.8829 22.4436 20.3105 22.0147L30.9502 11.4966C31.5356 10.8523 31.8558 10.0146 31.8476 9.14851C31.8562 8.20273 31.4823 7.29271 30.8091 6.62067C30.1358 5.94862 29.219 5.57021 28.2622 5.56951C27.3824 5.5588 26.5309 5.87716 25.8785 6.46079L9.8699 22.2877L2.20842 14.682C0.794796 13.0688 0.0175867 11.0056 0.0196268 8.87129C0.0330796 5.36924 2.1415 2.20691 5.39176 0.81386C8.64202 -0.57919 12.4181 0.0610473 15.0131 2.44515L16.1026 3.52079L12.3237 7.25644C12.3237 7.25644 11.7208 6.6396 11.5076 6.45386C10.8576 5.87624 10.012 5.56067 9.13796 5.56951C8.18244 5.56397 7.26415 5.93543 6.58664 6.60154C5.90914 7.26766 5.52838 8.17341 5.52877 9.11802C5.51738 9.9907 5.83819 10.8357 6.42756 11.4855L9.84326 14.8622L21.7758 3.08C23.4632 1.17358 25.9016 0.0809912 28.4641 0.0831684Z" fill="white"/>
</svg>
